<svg xmlns="http://www.w3.org/2000/svg" viewBox="0 0 32 32" width="32" height="32">
  <defs>
    <linearGradient id="grad1" x1="0%" y1="0%" x2="100%" y2="100%">
      <stop offset="0%" style="stop-color:#3b82f6;stop-opacity:1" />
      <stop offset="100%" style="stop-color:#1d4ed8;stop-opacity:1" />
    </linearGradient>
  </defs>
  
  <!-- Background circle -->
  <circle cx="16" cy="16" r="15" fill="url(#grad1)" stroke="#ffffff" stroke-width="1"/>
  
  <!-- Book icon from header -->
  <path d="M8 6.253v13m0-13C9.168 5.477 10.754 5 12.5 5S15.832 5.477 17 6.253v13C15.832 18.477 14.246 18 12.5 18s-3.332.477-4.5 1.253m0-13C6.832 5.477 5.246 5 3.5 5c-1.746 0-3.332.477-4.5 1.253v13C0.168 18.477 1.754 18 3.5 18c1.746 0 3.332.477 4.5 1.253" 
        stroke="#ffffff" stroke-width="1.5" stroke-linecap="round" stroke-linejoin="round" fill="none"/>
</svg>
